<svg width="138" height="155" viewBox="0 0 138 155" fill="none" xmlns="http://www.w3.org/2000/svg">
<path d="M136.953 12.9095C136.48 12.2815 135.846 11.7925 135.119 11.4937C134.392 11.1949 133.597 11.0975 132.819 11.2115C118.046 13.3752 104.263 19.7939 92.0784 30.0624C91.7712 28.9908 91.3977 27.9395 90.9598 26.9144C90.2053 25.0481 89.4251 23.1183 89.7947 21.7431C90.08 20.6818 91.5608 19.5096 92.9933 18.3761C94.7694 16.9703 96.7825 15.3769 97.6927 13.1511C98.5055 11.1637 98.2015 8.88535 97.9075 6.68221C97.7329 5.60111 97.6386 4.50857 97.6253 3.41354C97.6384 2.80404 97.4838 2.20267 97.1784 1.67504C96.873 1.14741 96.4286 0.713804 95.8936 0.421552C95.3546 0.123021 94.744 -0.0217954 94.1283 0.00289348C93.5127 0.0275824 92.9156 0.220829 92.4022 0.561561C81.5253 7.77106 73.5394 18.5472 68.914 32.1143C64.2884 18.5497 56.3101 7.77004 45.4348 0.561561C44.9214 0.220667 44.3242 0.0273439 43.7085 0.00269302C43.0927 -0.0219579 42.482 0.123009 41.9429 0.421773C41.408 0.714079 40.9637 1.14767 40.6583 1.67524C40.353 2.20282 40.1984 2.80412 40.2114 3.41354C40.1979 4.50856 40.1036 5.60108 39.9292 6.68221C39.6353 8.8853 39.3312 11.1633 40.144 13.1507C41.054 15.3766 43.0676 16.97 44.8439 18.3761C46.2761 19.5096 47.7571 20.6816 48.0424 21.7429C48.412 23.118 47.6317 25.0481 46.8774 26.9144C46.4394 27.9394 46.0657 28.9907 45.7586 30.0623C33.5734 19.7937 19.7908 13.375 5.01748 11.2113C4.2398 11.0978 3.44592 11.1955 2.71892 11.494C1.99192 11.7925 1.35853 12.281 0.88504 12.9083C0.41155 13.5355 0.115368 14.2785 0.0274945 15.0595C-0.0603791 15.8405 0.0632837 16.6307 0.385544 17.3475C0.906329 18.5718 1.36513 19.8215 1.76021 21.0919C2.70171 23.9406 3.6751 26.8863 5.7503 28.7467C8.0963 30.8499 11.3435 31.5681 14.4835 32.2628C17.2213 32.8684 19.8071 33.4405 20.9852 34.7991C22.4625 36.5027 22.6682 39.5389 22.8672 42.4752C23.0663 45.4152 23.2724 48.4553 24.7608 50.7248C26.5345 53.4279 29.6468 55.0725 32.3926 56.5235C34.8237 57.8084 37.1198 59.0218 37.8409 60.5518C38.9403 62.885 38.2372 66.041 37.5574 69.0931C37.1982 70.5487 36.9364 72.0266 36.7736 73.517H32.4805C31.949 73.517 31.4393 73.7281 31.0635 74.1039C30.6876 74.4797 30.4765 74.9895 30.4765 75.5209V83.7438C30.4714 99.6346 33.0627 115.419 38.1479 130.475L40.8489 138.48H37.3968C36.8653 138.48 36.3556 138.691 35.9798 139.067C35.604 139.443 35.3929 139.952 35.3929 140.484V152.848C35.3929 153.379 35.604 153.889 35.9798 154.265C36.3556 154.64 36.8653 154.852 37.3968 154.852H100.44C100.972 154.852 101.482 154.64 101.857 154.265C102.233 153.889 102.444 153.379 102.444 152.848V140.484C102.444 139.952 102.233 139.443 101.857 139.067C101.482 138.691 100.972 138.48 100.44 138.48H96.9883L99.6897 130.475C104.775 115.419 107.366 99.6346 107.361 83.7439V75.521C107.361 74.9896 107.149 74.4798 106.774 74.104C106.398 73.7282 105.888 73.5171 105.357 73.5171H101.064C100.901 72.0267 100.639 70.5488 100.28 69.0932C99.6003 66.0412 98.897 62.8854 99.9965 60.5519C100.717 59.0218 103.014 57.8082 105.445 56.5236C108.191 55.0726 111.303 53.4279 113.076 50.7246C114.565 48.4554 114.771 45.4153 114.97 42.4753C115.169 39.5389 115.374 36.5028 116.852 34.7991C118.03 33.4406 120.616 32.8685 123.354 32.2629C126.494 31.5682 129.741 30.8499 132.086 28.7468C134.162 26.8864 135.135 23.9405 136.077 21.0917C136.472 19.8215 136.931 18.572 137.451 17.3478C137.774 16.6314 137.898 15.8413 137.81 15.0604C137.723 14.2795 137.426 13.5366 136.953 12.9095ZM93.6461 4.56104C93.7004 5.45365 93.8192 6.34323 93.9349 7.21232C94.1593 8.89488 94.3915 10.6349 93.9831 11.634C93.471 12.8867 91.9635 14.0798 90.5058 15.2333C88.5627 16.7713 86.5536 18.3617 85.9243 20.7029C85.2058 23.3748 86.2887 26.0533 87.2437 28.4165C87.8682 29.9614 88.514 31.5589 88.38 32.5918C88.3291 32.9391 88.2359 33.279 88.1026 33.6037C82.9049 38.522 78.1891 43.9257 74.0193 49.741C72.1524 52.3261 70.4584 54.8785 68.9203 57.3512C68.7665 57.104 68.6039 56.8526 68.4469 56.6039C68.6383 52.7017 69.0748 48.8154 69.7539 44.968C72.9699 26.9257 81.0048 13.3383 93.6461 4.56104ZM49.4567 32.5918C49.3228 31.5592 49.9686 29.9616 50.5931 28.4167C51.5483 26.0535 52.6312 23.3751 51.913 20.7029C51.2837 18.3617 49.2743 16.7713 47.331 15.2333C45.8733 14.0799 44.366 12.8865 43.8537 11.634C43.4453 10.6351 43.6773 8.89528 43.902 7.21232C44.0177 6.34323 44.1366 5.45365 44.1909 4.5606C55.4546 12.3822 63.0592 24.0287 66.8578 39.2412C66.4643 40.8826 66.1144 42.5571 65.808 44.2647C65.3805 46.663 65.0672 48.9795 64.8386 51.1825C64.5021 50.7028 64.1657 50.2231 63.8176 49.741C59.6477 43.9257 54.9319 38.522 49.7342 33.6036C49.6009 33.2789 49.5077 32.9391 49.4567 32.5918ZM41.4664 58.8435C40.175 56.1033 37.1706 54.5156 34.2651 52.9802C31.8337 51.6954 29.3194 50.3666 28.1119 48.5263C27.1998 47.1358 27.0376 44.7404 26.8658 42.2044C26.6336 38.7769 26.3705 34.8922 24.0131 32.1736C21.967 29.8136 18.6028 29.0694 15.3491 28.3496C12.7138 27.7667 9.98874 27.1637 8.4258 25.7627C7.14567 24.615 6.37834 22.293 5.56598 19.8344C5.12885 18.4315 4.61949 17.0521 4.03995 15.7018C4.01292 15.6404 4.00277 15.5729 4.01056 15.5063C4.01834 15.4397 4.04379 15.3764 4.08425 15.3229C4.12471 15.2695 4.17872 15.2278 4.2407 15.2022C4.30268 15.1766 4.37037 15.168 4.43678 15.1773C16.4281 16.9333 27.6979 21.5769 37.9332 28.9786C46.1647 34.9313 53.7573 42.6746 60.5002 51.9931C65.3662 58.7611 69.5925 65.9668 73.1246 73.5171H40.8036C40.9638 72.3223 41.186 71.1366 41.4692 69.9648C42.2571 66.4272 43.1505 62.4176 41.4664 58.8435ZM98.4365 150.844H39.4005V142.488H98.4363L98.4365 150.844ZM103.353 83.7438C103.358 99.1988 100.838 114.551 95.8924 129.193L92.7588 138.48H45.0784L41.945 129.193C36.9993 114.551 34.4791 99.1989 34.4841 83.7438V77.525H103.353L103.353 83.7438ZM133.797 15.7016C133.218 17.0519 132.708 18.4313 132.271 19.8342C131.459 22.2928 130.691 24.6149 129.411 25.7628C127.848 27.1638 125.123 27.7668 122.488 28.3497C119.234 29.0695 115.87 29.8137 113.824 32.1734C111.466 34.8921 111.203 38.7769 110.971 42.2045C110.8 44.7405 110.638 47.1359 109.725 48.5262C108.518 50.3666 106.003 51.6952 103.572 52.9803C100.667 54.5157 97.6624 56.1034 96.3712 58.8438C94.6868 62.4177 95.5801 66.4271 96.3681 69.9647C96.6514 71.1365 96.8735 72.3222 97.0337 73.5171H77.5568C76.0165 70.1047 73.9349 65.885 71.2508 61.2395C73.0371 58.2583 75.0583 55.1418 77.3366 51.9929C84.0799 42.6744 91.6721 34.9311 99.9037 28.9784C110.139 21.5766 121.409 16.9331 133.4 15.1771C133.467 15.1678 133.534 15.1763 133.596 15.2019C133.658 15.2275 133.712 15.2692 133.753 15.3227C133.793 15.3761 133.819 15.4395 133.827 15.5061C133.834 15.5727 133.824 15.6402 133.797 15.7016Z" fill="white"/>
</svg>
